<svg xmlns="http://www.w3.org/2000/svg" width="24" height="24" fill="#36f" xmlns:v="https://vecta.io/nano"><path opacity=".4" d="M23.855 11.392C21.595 6.983 17.122 4 12 4S2.403 6.985.145 11.392A1.35 1.35 0 0 0 0 12a1.35 1.35 0 0 0 .145.608C2.405 17.017 6.878 20 12 20s9.597-2.985 11.855-7.392a1.35 1.35 0 0 0 0-1.216zM12.006 18H12c-1.59-.001-3.115-.633-4.239-1.758s-1.755-2.65-1.755-4.24.632-3.115 1.757-4.24 2.65-1.756 4.24-1.756 3.115.632 4.24 1.756S18 10.411 18 12.002s-.631 3.116-1.755 4.24-2.649 1.757-4.239 1.758z"/><path d="M15.861 13.036a3.99 3.99 0 0 1-1.865 2.425 3.99 3.99 0 0 1-3.034.392 3.99 3.99 0 0 1-2.42-1.872 3.99 3.99 0 0 1-.383-3.036c.384.283.857.418 1.332.382s.922-.241 1.259-.578.542-.784.578-1.259-.1-.948-.382-1.332a3.97 3.97 0 0 1 3.887 1 3.97 3.97 0 0 1 1.03 3.879h-.001z"/></svg>