<svg xmlns="http://www.w3.org/2000/svg" width="16" height="16" fill="none" xmlns:v="https://vecta.io/nano"><path d="M12.667 1.333H3.334a2 2 0 0 0-2 2v.78a2 2 0 0 0 .167.8v.04c.094.214.228.408.393.573L6 9.607V14c0 .113.028.225.083.324s.134.183.23.243c.106.066.229.1.353.1a.67.67 0 0 0 .3-.073l2.667-1.333c.11-.055.202-.14.267-.245s.099-.225.1-.348v-3.06l4.08-4.08c.166-.165.299-.359.393-.573v-.04a2 2 0 0 0 .193-.8v-.78a2 2 0 0 0-2-2zM8.86 8.86c-.062.062-.111.136-.144.217s-.05.168-.049.256v2.92l-1.333.667V9.333c0-.088-.016-.175-.049-.256s-.082-.155-.144-.217L3.607 5.333h8.787L8.86 8.86zM13.334 4H2.667v-.667c0-.177.07-.346.195-.471s.295-.195.471-.195h9.333c.177 0 .346.07.471.195s.195.295.195.471V4z" fill="#3365fc"/></svg>