<svg xmlns="http://www.w3.org/2000/svg" width="32" height="32" fill="#b1b1b8" xmlns:v="https://vecta.io/nano"><path d="M10 16a1 1 0 0 1 1-1h9V8.5c0-2-2.112-3.5-4-3.5H6.5c-.928.001-1.818.37-2.474 1.026S3.001 7.572 3 8.5v15c.001.928.37 1.818 1.026 2.474S5.572 26.999 6.5 27h10c.928-.001 1.818-.37 2.474-1.026S19.999 24.428 20 23.5V17h-9a1 1 0 0 1-1-1z"/><path d="M28.707 15.293l-5-5a1 1 0 0 0-1.396.018 1 1 0 0 0-.018 1.396L25.586 15H20v2h5.586l-3.293 3.293c-.097.092-.174.202-.228.325a1 1 0 0 0-.01.777 1 1 0 0 0 .55.55 1 1 0 0 0 .777-.01 1 1 0 0 0 .325-.228l5-5a1 1 0 0 0 0-1.414z"/></svg>