<svg width="32" height="32" viewBox="0 0 32 32" fill="none" xmlns="http://www.w3.org/2000/svg">
<rect width="32" height="32" rx="4" fill="#00AE69"/>
<path d="M20.621 25.38C19.243 26.118 17.669 26.54 15.998 26.54C14.328 26.54 12.755 26.12 11.377 25.38C8.401 26.162 6.069 28.015 5 32H27C25.931 28.014 23.599 26.161 20.621 25.38ZM16 24C20.418 24 24 20.418 24 16C24 11.582 20.418 8 16 8C11.582 8 8 11.582 8 16C8 20.418 11.582 24 16 24ZM21.349 18.667C20.364 20.635 18.351 22 16 22C13.649 22 11.636 20.635 10.651 18.667H21.349Z" fill="#F1F1F3"/>
</svg>
